<?xml version="1.0" encoding="UTF-8" standalone="no"?>
<svg
   width="22"
   height="22"
   version="1.1"
   viewBox="0 0 22 22"
   id="svg22"
   sodipodi:docname="compass.svg"
   inkscape:version="1.1 (c4e8f9ed74, 2021-05-24)"
   xmlns:inkscape="http://www.inkscape.org/namespaces/inkscape"
   xmlns:sodipodi="http://sodipodi.sourceforge.net/DTD/sodipodi-0.dtd"
   xmlns="http://www.w3.org/2000/svg"
   xmlns:svg="http://www.w3.org/2000/svg"
   xmlns:rdf="http://www.w3.org/1999/02/22-rdf-syntax-ns#"
   xmlns:cc="http://creativecommons.org/ns#"
   xmlns:dc="http://purl.org/dc/elements/1.1/">
  <sodipodi:namedview
     id="namedview24"
     pagecolor="#ffffff"
     bordercolor="#666666"
     borderopacity="1.0"
     inkscape:pageshadow="2"
     inkscape:pageopacity="0.0"
     inkscape:pagecheckerboard="0"
     showgrid="false"
     inkscape:zoom="9.2647521"
     inkscape:cx="20.61577"
     inkscape:cy="15.380876"
     inkscape:window-width="1366"
     inkscape:window-height="710"
     inkscape:window-x="0"
     inkscape:window-y="0"
     inkscape:window-maximized="1"
     inkscape:current-layer="svg22" />
  <metadata
     id="metadata2">
    <rdf:RDF>
      <cc:Work
         rdf:about="">
        <dc:format>image/svg+xml</dc:format>
        <dc:type
           rdf:resource="http://purl.org/dc/dcmitype/StillImage" />
        <dc:title />
      </cc:Work>
    </rdf:RDF>
  </metadata>
  <defs
     id="defs5">
    <style
       id="current-color-scheme"
       type="text/css">.ColorScheme-Text { color:#dedede; } .ColorScheme-Highlight { color:#5294e2; }</style>
  </defs>
  <g
     id="16-16-compass">
    <rect
       x="25"
       width="16"
       height="16"
       fill="none"
       stroke-linecap="round"
       stroke-linejoin="round"
       stroke-miterlimit="2"
       stroke-width="2.1333"
       id="rect7" />
    <path
       class="ColorScheme-Text"
       d="m33 1.0273c-3.866 0-7 3.1182-7 7s3.134 7 7 7 7-3.1182 7-7-3.134-7-7-7zm0 1.9727c2.7614 0 5 2.2909 5 5.0273s-2.2386 5.0273-5 5.0273-5-2.2909-5-5.0273 2.2386-5.0273 5-5.0273zm3.5 1.5273-3.5 1.1455c-1.2217 0-2.334 1.1455-2.334 2.3545l-1.166 3.5 3.5-1.1455c1.2217 0 2.334-1.1455 2.334-2.3545zm-3.5 2.3545c0.61088 0 1.166 0.50909 1.166 1.1455-1.9e-5 0.63636-0.55518 1.1455-1.166 1.1455-0.61085 0-1.166-0.50909-1.166-1.1455-3e-5 -0.63636 0.55514-1.1455 1.166-1.1455z"
       fill="#dedede"
       id="path9" />
  </g>
  <g
     id="22-22-compass"
     stroke-linecap="round"
     stroke-linejoin="round"
     stroke-miterlimit="2"
     stroke-width="2">
    <circle
       cx="11"
       cy="11"
       r="11"
       opacity="0"
       id="circle12" />
    <path
       d="m16.657 5.3431a8 8 0 0 0-11.314 0 8 8 0 0 0 0 11.314 8 8 0 0 0 11.314 0 8 8 0 0 0 0-11.314zm-1.4142 1.4142a6 6 0 0 1 0 8.4853 6 6 0 0 1-8.4853 0 6 6 0 0 1 0-8.4853 6 6 0 0 1 8.4853 0zm0 0-3.2731 1.4032a3 3 0 0 0-3.0908 0.71816 3 3 0 0 0-0.71816 3.0881l-1.4032 3.2759 3.2731-1.4032a3 3 0 0 0 3.0908-0.71816 3 3 0 0 0 0.71816-3.0881zm-3.5355 3.5355a1 1 0 0 1 0 1.4142 1 1 0 0 1-1.4142 0 1 1 0 0 1 0-1.4142 1 1 0 0 1 1.4142 0z"
       fill="#dedede"
       id="path14" />
  </g>
  <g
     id="compass">
    <rect
       x="-8"
       y="-36.055"
       width="32"
       height="32"
       fill="none"
       stroke-linecap="round"
       stroke-linejoin="round"
       stroke-miterlimit="2"
       stroke-width="4.2666"
       id="rect17" />
    <path
       d="m8-34a14 14 0 0 0-14 14 14 14 0 0 0 14 14 14 14 0 0 0 14-14 14 14 0 0 0-14-14zm-0.10742 1a13 13 0 0 1 0.10742 0 13 13 0 0 1 9.1582 3.7734 1.0001 1.0001 0 0 0-1.1875-0.11719l-6.0723 3.6523a6 6 0 0 0-1.8984-0.30859 6 6 0 0 0-6 6 6 6 0 0 0 0.30859 1.8965l-3.6523 6.0742a1.0001 1.0001 0 0 0 0.10547 1.1738 13 13 0 0 1-3.7617-9.1445 13 13 0 0 1 12.893-13zm9.3457 3.8555a13 13 0 0 1 3.7617 9.1445 13 13 0 0 1-13 13 13 13 0 0 1-9.1445-3.7617 1.0001 1.0001 0 0 0 1.1738 0.10547l6.0703-3.6523a6 6 0 0 1-0.066406-0.023437 6 6 0 0 0 1.9668 0.33203 6 6 0 0 0 6-6 6 6 0 0 0-0.30859-1.8965l3.6523-6.0742a1.0001 1.0001 0 0 0-0.10547-1.1738zm-0.75391 0.66016-3.293 5.4785a6 6 0 0 0-2.1836-2.1855l5.4766-3.293zm-8.4844 3.4844a5 5 0 0 1 5 5 5 5 0 0 1-5 5 5 5 0 0 1-5-5 5 5 0 0 1 5-5zm-0.050781 2a3 3 0 0 0-2.9492 3 3 3 0 0 0 3 3 3 3 0 0 0 3-3 3 3 0 0 0-3-3 3 3 0 0 0-0.050781 0zm0 1a2 2 0 0 1 0.0019531 0 2 2 0 0 1 0.048828 0 2 2 0 0 1 2 2 2 2 0 0 1-2 2 2 2 0 0 1-2-2 2 2 0 0 1 1.9492-2zm-5.1406 5.0078a6 6 0 0 0 2.1836 2.1836l-5.4766 3.293 3.293-5.4766z"
       fill="#fff"
       stroke-width="2"
       id="path19" />
  </g>
</svg>
